<?xml version="1.0" encoding="UTF-8"?><svg id="uuid-e1223f1d-7051-4a70-8aa7-815b78ca7891" xmlns="http://www.w3.org/2000/svg" viewBox="0 0 110.77627 111.15805"><path d="M55.38819,111.15805h-.00011C24.79809,111.15805,0,86.35996,0,55.76997v-.38189C0,24.79809,24.79809,0,55.38808,0h.00011c30.58999,0,55.38808,24.79809,55.38808,55.38808v.38189c0,30.58999-24.79809,55.38808-55.38808,55.38808Z" style="fill:#fff; stroke-width:0px;"/><path d="M27.43057,74.57893h-.00002c-5.15345.01001-9.33926-4.15957-9.34927-9.31302l-.01813-9.33113,18.6623-.03626.01813,9.33114c.01001,5.15345-4.15957,9.33926-9.31301,9.34927Z" style="fill:#de8d24; stroke-width:0px;"/><path d="M64.75518,74.50641h-.00002c-5.15345.01001-9.33926-4.15957-9.34927-9.31301l-.01813-9.33113,18.6623-.03626.01813,9.33113c.01001,5.15345-4.15957,9.33926-9.31301,9.34927Z" style="fill:#4c7789; stroke-width:0px;"/><path d="M66.48334,44.83434c-.19371-.10429-.74509-.34274-1.44555-.34274-1.40087,0-2.0864.89417-2.0864,2.0864,0,1.16237.73022,2.10128,2.10128,2.10128.59612,0,1.16248-.16396,1.50522-.38747l.17883.56631c-.52157.34279-1.20716.46201-1.83303.46201-1.72873,0-2.72725-1.19223-2.72725-2.69745,0-1.69893,1.34126-2.77193,2.84648-2.77193.77495,0,1.44555.22357,1.63927.4024l-.17883.58119Z" style="fill:#332f2b; stroke-width:0px;"/><path d="M36.72546,55.89852l-.01813-9.33114c-.01001-5.15345,4.15957-9.33926,9.31301-9.34927h.00002c5.15345-.01001,9.33926,4.15957,9.34927,9.31302l.01813,9.33113-18.6623.03626Z" style="fill:#e05129; stroke-width:0px;"/><path d="M25.20669,43.93321c.42707-.06214.93459-.10779,1.49009-.10487,1.0065.00525,1.72194.24256,2.19466.68787.48075.44545.75934,1.07483.75467,1.95254-.00459.88565-.28224,1.6089-.79216,2.10547-.50985.5046-1.34876.77393-2.40353.76838-.49913-.00263-.91767-.02895-1.27174-.07111l.028-5.33829ZM25.88202,48.73575c.17693.03311.43459.04252.70829.04398,1.49768.00788,2.31529-.82527,2.32302-2.29071.01473-1.28013-.70574-2.09716-2.18723-2.10496-.36231-.0019-.63616.02888-.82162.06819l-.02246,4.28351Z" style="fill:#332f2b; stroke-width:0px;"/><path d="M85.42562,62.45801c-.19376-.10429-.7452-.34274-1.44561-.34274-1.40087,0-2.0864.89417-2.0864,2.0864,0,1.16237.73027,2.10128,2.10133,2.10128.59612,0,1.16237-.16396,1.50517-.38747l.17883.56631c-.52163.34279-1.20711.46201-1.83308.46201-1.72873,0-2.7272-1.19223-2.7272-2.69745,0-1.69893,1.34126-2.77193,2.84642-2.77193.77495,0,1.44561.22357,1.63937.4024l-.17883.58119Z" style="fill:#332f2b; stroke-width:0px;"/><path d="M47.51018,67.42219c-.15031-.15039-.29281-.3007-.49853-.52234-.45904.42737-.97342.60937-1.55905.60937-1.03679.00001-1.63818-.69636-1.63818-1.49568,0-.72814.43524-1.22668,1.04459-1.55907v-.0238c-.27697-.34815-.4432-.73594-.4432-1.11585,0-.64893.46693-1.3137,1.35333-1.31371.66476,0,1.17914.44312,1.17914,1.13169,0,.56191-.32442,1.00504-1.17126,1.42453v.02373c.45108.52234.95758,1.10796,1.29792,1.48787.24536-.37203.41152-.88641.51438-1.55907h.63316c-.14243.83888-.37195,1.50365-.7677,1.97058.28493.3007.5619.60147.87852.94173h-.82311ZM46.6713,66.50418c-.31654-.34822-.91005-.99714-1.50364-1.67775-.28493.182-.68849.52235-.68849,1.08418,0,.60944.45108,1.07636,1.09212,1.07636.45897,0,.84676-.20581,1.1-.48278ZM45.04896,63.25152c0,.37983.17411.67265.40363.95758.5381-.30866.88633-.59353.88632-1.04469,0-.32442-.18199-.68849-.61731-.68849-.44312,0-.67265.36408-.67265.7756Z" style="fill:#332f2b; stroke-width:0px;"/><path d="M83.3378,37.2452h.00002c5.1534-.01004,9.33916,4.15952,9.34911,9.31292l.018,9.33123-18.66222.03636-.018-9.33123c-.00994-5.15345,4.15964-9.33924,9.3131-9.34929Z" style="fill:#de8d24; stroke-width:0px;"/></svg>