<?xml version="1.0" encoding="UTF-8"?>
<svg id="Calque_1" xmlns="http://www.w3.org/2000/svg" version="1.1" viewBox="0 0 175 175">
  <!-- Generator: Adobe Illustrator 29.8.2, SVG Export Plug-In . SVG Version: 2.1.1 Build 3)  -->
  <defs>
    <style>
      .st0 {
        fill: none;
      }

      .st1 {
        fill: #33302b;
      }
    </style>
  </defs>
  <rect class="st0" width="175" height="175"/>
  <path class="st1" d="M4.9,4.9h5.2v5.2h-5.2s0-5.2,0-5.2Z"/>
  <path class="st1" d="M9.9,4.9h5.2v5.2h-5.2v-5.2Z"/>
  <path class="st1" d="M14.9,4.9h5.2v5.2h-5.2s0-5.2,0-5.2Z"/>
  <path class="st1" d="M19.9,4.9h5.2v5.2h-5.2s0-5.2,0-5.2Z"/>
  <path class="st1" d="M24.9,4.9h5.2v5.2h-5.2s0-5.2,0-5.2Z"/>
  <path class="st1" d="M29.9,4.9h5.2v5.2h-5.2s0-5.2,0-5.2Z"/>
  <path class="st1" d="M34.9,4.9h5.2v5.2h-5.2v-5.2Z"/>
  <path class="st1" d="M44.9,4.9h5.2v5.2h-5.2v-5.2Z"/>
  <path class="st1" d="M49.9,4.9h5.2v5.2h-5.2v-5.2Z"/>
  <path class="st1" d="M54.9,4.9h5.2v5.2h-5.2v-5.2Z"/>
  <path class="st1" d="M64.9,4.9h5.2v5.2h-5.2v-5.2Z"/>
  <path class="st1" d="M69.9,4.9h5.2v5.2h-5.2v-5.2Z"/>
  <path class="st1" d="M74.9,4.9h5.2v5.2h-5.2v-5.2Z"/>
  <path class="st1" d="M79.9,4.9h5.2v5.2h-5.2v-5.2Z"/>
  <path class="st1" d="M84.9,4.9h5.2v5.2h-5.2v-5.2Z"/>
  <path class="st1" d="M104.9,4.9h5.2v5.2h-5.2v-5.2Z"/>
  <path class="st1" d="M134.9,4.9h5.2v5.2h-5.2v-5.2Z"/>
  <path class="st1" d="M139.9,4.9h5.2v5.2h-5.2v-5.2Z"/>
  <path class="st1" d="M144.9,4.9h5.2v5.2h-5.2v-5.2Z"/>
  <path class="st1" d="M149.9,4.9h5.2v5.2h-5.2v-5.2Z"/>
  <path class="st1" d="M154.9,4.9h5.2v5.2h-5.2v-5.2Z"/>
  <path class="st1" d="M159.9,4.9h5.2v5.2h-5.2v-5.2Z"/>
  <path class="st1" d="M164.9,4.9h5.2v5.2h-5.2v-5.2Z"/>
  <path class="st1" d="M4.9,9.9h5.2v5.2h-5.2s0-5.2,0-5.2Z"/>
  <path class="st1" d="M34.9,9.9h5.2v5.2h-5.2v-5.2Z"/>
  <path class="st1" d="M64.9,9.9h5.2v5.2h-5.2v-5.2Z"/>
  <path class="st1" d="M69.9,9.9h5.2v5.2h-5.2v-5.2Z"/>
  <path class="st1" d="M74.9,9.9h5.2v5.2h-5.2v-5.2Z"/>
  <path class="st1" d="M84.9,9.9h5.2v5.2h-5.2v-5.2Z"/>
  <path class="st1" d="M94.9,9.9h5.2v5.2h-5.2v-5.2Z"/>
  <path class="st1" d="M99.9,9.9h5.2v5.2h-5.2v-5.2Z"/>
  <path class="st1" d="M119.9,9.9h5.2v5.2h-5.2v-5.2Z"/>
  <path class="st1" d="M134.9,9.9h5.2v5.2h-5.2v-5.2Z"/>
  <path class="st1" d="M164.9,9.9h5.2v5.2h-5.2v-5.2Z"/>
  <path class="st1" d="M4.9,14.9h5.2v5.2h-5.2s0-5.2,0-5.2Z"/>
  <path class="st1" d="M14.9,14.9h5.2v5.2h-5.2s0-5.2,0-5.2Z"/>
  <path class="st1" d="M19.9,14.9h5.2v5.2h-5.2s0-5.2,0-5.2Z"/>
  <path class="st1" d="M24.9,14.9h5.2v5.2h-5.2s0-5.2,0-5.2Z"/>
  <path class="st1" d="M34.9,14.9h5.2v5.2h-5.2s0-5.2,0-5.2Z"/>
  <path class="st1" d="M49.9,14.9h5.2v5.2h-5.2s0-5.2,0-5.2Z"/>
  <path class="st1" d="M59.9,14.9h5.2v5.2h-5.2s0-5.2,0-5.2Z"/>
  <path class="st1" d="M64.9,14.9h5.2v5.2h-5.2s0-5.2,0-5.2Z"/>
  <path class="st1" d="M74.9,14.9h5.2v5.2h-5.2s0-5.2,0-5.2Z"/>
  <path class="st1" d="M84.9,14.9h5.2v5.2h-5.2s0-5.2,0-5.2Z"/>
  <path class="st1" d="M89.9,14.9h5.2v5.2h-5.2s0-5.2,0-5.2Z"/>
  <path class="st1" d="M94.9,14.9h5.2v5.2h-5.2s0-5.2,0-5.2Z"/>
  <path class="st1" d="M99.9,14.9h5.2v5.2h-5.2s0-5.2,0-5.2Z"/>
  <path class="st1" d="M104.9,14.9h5.2v5.2h-5.2s0-5.2,0-5.2Z"/>
  <path class="st1" d="M109.9,14.9h5.2v5.2h-5.2s0-5.2,0-5.2Z"/>
  <path class="st1" d="M119.9,14.9h5.2v5.2h-5.2s0-5.2,0-5.2Z"/>
  <path class="st1" d="M124.9,14.9h5.2v5.2h-5.2s0-5.2,0-5.2Z"/>
  <path class="st1" d="M134.9,14.9h5.2v5.2h-5.2s0-5.2,0-5.2Z"/>
  <path class="st1" d="M144.9,14.9h5.2v5.2h-5.2s0-5.2,0-5.2Z"/>
  <path class="st1" d="M149.9,14.9h5.2v5.2h-5.2s0-5.2,0-5.2Z"/>
  <path class="st1" d="M154.9,14.9h5.2v5.2h-5.2s0-5.2,0-5.2Z"/>
  <path class="st1" d="M164.9,14.9h5.2v5.2h-5.2s0-5.2,0-5.2Z"/>
  <path class="st1" d="M4.9,19.9h5.2v5.2h-5.2s0-5.2,0-5.2Z"/>
  <path class="st1" d="M14.9,19.9h5.2v5.2h-5.2s0-5.2,0-5.2Z"/>
  <path class="st1" d="M19.9,19.9h5.2v5.2h-5.2s0-5.2,0-5.2Z"/>
  <path class="st1" d="M24.9,19.9h5.2v5.2h-5.2s0-5.2,0-5.2Z"/>
  <path class="st1" d="M34.9,19.9h5.2v5.2h-5.2s0-5.2,0-5.2Z"/>
  <path class="st1" d="M44.9,19.9h5.2v5.2h-5.2s0-5.2,0-5.2Z"/>
  <path class="st1" d="M49.9,19.9h5.2v5.2h-5.2s0-5.2,0-5.2Z"/>
  <path class="st1" d="M54.9,19.9h5.2v5.2h-5.2s0-5.2,0-5.2Z"/>
  <path class="st1" d="M59.9,19.9h5.2v5.2h-5.2s0-5.2,0-5.2Z"/>
  <path class="st1" d="M79.9,19.9h5.2v5.2h-5.2s0-5.2,0-5.2Z"/>
  <path class="st1" d="M84.9,19.9h5.2v5.2h-5.2s0-5.2,0-5.2Z"/>
  <path class="st1" d="M89.9,19.9h5.2v5.2h-5.2s0-5.2,0-5.2Z"/>
  <path class="st1" d="M109.9,19.9h5.2v5.2h-5.2s0-5.2,0-5.2Z"/>
  <path class="st1" d="M114.9,19.9h5.2v5.2h-5.2s0-5.2,0-5.2Z"/>
  <path class="st1" d="M134.9,19.9h5.2v5.2h-5.2s0-5.2,0-5.2Z"/>
  <path class="st1" d="M144.9,19.9h5.2v5.2h-5.2s0-5.2,0-5.2Z"/>
  <path class="st1" d="M149.9,19.9h5.2v5.2h-5.2s0-5.2,0-5.2Z"/>
  <path class="st1" d="M154.9,19.9h5.2v5.2h-5.2s0-5.2,0-5.2Z"/>
  <path class="st1" d="M164.9,19.9h5.2v5.2h-5.2s0-5.2,0-5.2Z"/>
  <path class="st1" d="M4.9,24.9h5.2v5.2h-5.2s0-5.2,0-5.2Z"/>
  <path class="st1" d="M14.9,24.9h5.2v5.2h-5.2s0-5.2,0-5.2Z"/>
  <path class="st1" d="M19.9,24.9h5.2v5.2h-5.2s0-5.2,0-5.2Z"/>
  <path class="st1" d="M24.9,24.9h5.2v5.2h-5.2s0-5.2,0-5.2Z"/>
  <path class="st1" d="M34.9,24.9h5.2v5.2h-5.2s0-5.2,0-5.2Z"/>
  <path class="st1" d="M44.9,24.9h5.2v5.2h-5.2s0-5.2,0-5.2Z"/>
  <path class="st1" d="M49.9,24.9h5.2v5.2h-5.2s0-5.2,0-5.2Z"/>
  <path class="st1" d="M59.9,24.9h5.2v5.2h-5.2s0-5.2,0-5.2Z"/>
  <path class="st1" d="M69.9,24.9h5.2v5.2h-5.2s0-5.2,0-5.2Z"/>
  <path class="st1" d="M84.9,24.9h5.2v5.2h-5.2s0-5.2,0-5.2Z"/>
  <path class="st1" d="M99.9,24.9h5.2v5.2h-5.2s0-5.2,0-5.2Z"/>
  <path class="st1" d="M109.9,24.9h5.2v5.2h-5.2s0-5.2,0-5.2Z"/>
  <path class="st1" d="M114.9,24.9h5.2v5.2h-5.2s0-5.2,0-5.2Z"/>
  <path class="st1" d="M134.9,24.9h5.2v5.2h-5.2s0-5.2,0-5.2Z"/>
  <path class="st1" d="M144.9,24.9h5.2v5.2h-5.2s0-5.2,0-5.2Z"/>
  <path class="st1" d="M149.9,24.9h5.2v5.2h-5.2s0-5.2,0-5.2Z"/>
  <path class="st1" d="M154.9,24.9h5.2v5.2h-5.2s0-5.2,0-5.2Z"/>
  <path class="st1" d="M164.9,24.9h5.2v5.2h-5.2s0-5.2,0-5.2Z"/>
  <path class="st1" d="M4.9,29.9h5.2v5.2h-5.2s0-5.2,0-5.2Z"/>
  <path class="st1" d="M34.9,29.9h5.2v5.2h-5.2s0-5.2,0-5.2Z"/>
  <path class="st1" d="M44.9,29.9h5.2v5.2h-5.2s0-5.2,0-5.2Z"/>
  <path class="st1" d="M49.9,29.9h5.2v5.2h-5.2s0-5.2,0-5.2Z"/>
  <path class="st1" d="M64.9,29.9h5.2v5.2h-5.2s0-5.2,0-5.2Z"/>
  <path class="st1" d="M74.9,29.9h5.2v5.2h-5.2s0-5.2,0-5.2Z"/>
  <path class="st1" d="M79.9,29.9h5.2v5.2h-5.2s0-5.2,0-5.2Z"/>
  <path class="st1" d="M94.9,29.9h5.2v5.2h-5.2s0-5.2,0-5.2Z"/>
  <path class="st1" d="M104.9,29.9h5.2v5.2h-5.2s0-5.2,0-5.2Z"/>
  <path class="st1" d="M119.9,29.9h5.2v5.2h-5.2s0-5.2,0-5.2Z"/>
  <path class="st1" d="M124.9,29.9h5.2v5.2h-5.2s0-5.2,0-5.2Z"/>
  <path class="st1" d="M134.9,29.9h5.2v5.2h-5.2s0-5.2,0-5.2Z"/>
  <path class="st1" d="M164.9,29.9h5.2v5.2h-5.2s0-5.2,0-5.2Z"/>
  <path class="st1" d="M4.9,34.9h5.2v5.2h-5.2s0-5.2,0-5.2Z"/>
  <path class="st1" d="M9.9,34.9h5.2v5.2h-5.2v-5.2Z"/>
  <path class="st1" d="M14.9,34.9h5.2v5.2h-5.2s0-5.2,0-5.2Z"/>
  <path class="st1" d="M19.9,34.9h5.2v5.2h-5.2s0-5.2,0-5.2Z"/>
  <path class="st1" d="M24.9,34.9h5.2v5.2h-5.2s0-5.2,0-5.2Z"/>
  <path class="st1" d="M29.9,34.9h5.2v5.2h-5.2s0-5.2,0-5.2Z"/>
  <path class="st1" d="M34.9,34.9h5.2v5.2h-5.2v-5.2Z"/>
  <path class="st1" d="M44.9,34.9h5.2v5.2h-5.2v-5.2Z"/>
  <path class="st1" d="M54.9,34.9h5.2v5.2h-5.2v-5.2Z"/>
  <path class="st1" d="M64.9,34.9h5.2v5.2h-5.2v-5.2Z"/>
  <path class="st1" d="M74.9,34.9h5.2v5.2h-5.2v-5.2Z"/>
  <path class="st1" d="M84.9,34.9h5.2v5.2h-5.2v-5.2Z"/>
  <path class="st1" d="M94.9,34.9h5.2v5.2h-5.2v-5.2Z"/>
  <path class="st1" d="M104.9,34.9h5.2v5.2h-5.2v-5.2Z"/>
  <path class="st1" d="M114.9,34.9h5.2v5.2h-5.2v-5.2Z"/>
  <path class="st1" d="M124.9,34.9h5.2v5.2h-5.2s0-5.2,0-5.2Z"/>
  <path class="st1" d="M134.9,34.9h5.2v5.2h-5.2v-5.2Z"/>
  <path class="st1" d="M139.9,34.9h5.2v5.2h-5.2v-5.2Z"/>
  <path class="st1" d="M144.9,34.9h5.2v5.2h-5.2v-5.2Z"/>
  <path class="st1" d="M149.9,34.9h5.2v5.2h-5.2v-5.2Z"/>
  <path class="st1" d="M154.9,34.9h5.2v5.2h-5.2v-5.2Z"/>
  <path class="st1" d="M159.9,34.9h5.2v5.2h-5.2v-5.2Z"/>
  <path class="st1" d="M164.9,34.9h5.2v5.2h-5.2v-5.2Z"/>
  <path class="st1" d="M44.9,39.9h5.2v5.2h-5.2v-5.2Z"/>
  <path class="st1" d="M49.9,39.9h5.2v5.2h-5.2v-5.2Z"/>
  <path class="st1" d="M64.9,39.9h5.2v5.2h-5.2v-5.2Z"/>
  <path class="st1" d="M74.9,39.9h5.2v5.2h-5.2v-5.2Z"/>
  <path class="st1" d="M94.9,39.9h5.2v5.2h-5.2v-5.2Z"/>
  <path class="st1" d="M99.9,39.9h5.2v5.2h-5.2v-5.2Z"/>
  <path class="st1" d="M104.9,39.9h5.2v5.2h-5.2v-5.2Z"/>
  <path class="st1" d="M109.9,39.9h5.2v5.2h-5.2v-5.2Z"/>
  <path class="st1" d="M114.9,39.9h5.2v5.2h-5.2v-5.2Z"/>
  <path class="st1" d="M124.9,39.9h5.2v5.2h-5.2s0-5.2,0-5.2Z"/>
  <path class="st1" d="M4.9,44.9h5.2v5.2h-5.2s0-5.2,0-5.2Z"/>
  <path class="st1" d="M24.9,44.9h5.2v5.2h-5.2s0-5.2,0-5.2Z"/>
  <path class="st1" d="M34.9,44.9h5.2v5.2h-5.2v-5.2Z"/>
  <path class="st1" d="M39.9,44.9h5.2v5.2h-5.2v-5.2Z"/>
  <path class="st1" d="M44.9,44.9h5.2v5.2h-5.2v-5.2Z"/>
  <path class="st1" d="M49.9,44.9h5.2v5.2h-5.2v-5.2Z"/>
  <path class="st1" d="M74.9,44.9h5.2v5.2h-5.2v-5.2Z"/>
  <path class="st1" d="M79.9,44.9h5.2v5.2h-5.2v-5.2Z"/>
  <path class="st1" d="M89.9,44.9h5.2v5.2h-5.2v-5.2Z"/>
  <path class="st1" d="M94.9,44.9h5.2v5.2h-5.2v-5.2Z"/>
  <path class="st1" d="M119.9,44.9h5.2v5.2h-5.2v-5.2Z"/>
  <path class="st1" d="M129.9,44.9h5.2v5.2h-5.2v-5.2Z"/>
  <path class="st1" d="M134.9,44.9h5.2v5.2h-5.2v-5.2Z"/>
  <path class="st1" d="M139.9,44.9h5.2v5.2h-5.2v-5.2Z"/>
  <path class="st1" d="M144.9,44.9h5.2v5.2h-5.2v-5.2Z"/>
  <path class="st1" d="M149.9,44.9h5.2v5.2h-5.2v-5.2Z"/>
  <path class="st1" d="M164.9,44.9h5.2v5.2h-5.2v-5.2Z"/>
  <path class="st1" d="M4.9,49.9h5.2v5.2h-5.2s0-5.2,0-5.2Z"/>
  <path class="st1" d="M9.9,49.9h5.2v5.2h-5.2v-5.2Z"/>
  <path class="st1" d="M14.9,49.9h5.2v5.2h-5.2s0-5.2,0-5.2Z"/>
  <path class="st1" d="M19.9,49.9h5.2v5.2h-5.2s0-5.2,0-5.2Z"/>
  <path class="st1" d="M29.9,49.9h5.2v5.2h-5.2s0-5.2,0-5.2Z"/>
  <path class="st1" d="M44.9,49.9h5.2v5.2h-5.2v-5.2Z"/>
  <path class="st1" d="M74.9,49.9h5.2v5.2h-5.2v-5.2Z"/>
  <path class="st1" d="M79.9,49.9h5.2v5.2h-5.2v-5.2Z"/>
  <path class="st1" d="M84.9,49.9h5.2v5.2h-5.2v-5.2Z"/>
  <path class="st1" d="M89.9,49.9h5.2v5.2h-5.2v-5.2Z"/>
  <path class="st1" d="M104.9,49.9h5.2v5.2h-5.2v-5.2Z"/>
  <path class="st1" d="M109.9,49.9h5.2v5.2h-5.2v-5.2Z"/>
  <path class="st1" d="M129.9,49.9h5.2v5.2h-5.2v-5.2Z"/>
  <path class="st1" d="M139.9,49.9h5.2v5.2h-5.2v-5.2Z"/>
  <path class="st1" d="M144.9,49.9h5.2v5.2h-5.2v-5.2Z"/>
  <path class="st1" d="M149.9,49.9h5.2v5.2h-5.2v-5.2Z"/>
  <path class="st1" d="M154.9,49.9h5.2v5.2h-5.2v-5.2Z"/>
  <path class="st1" d="M159.9,49.9h5.2v5.2h-5.2v-5.2Z"/>
  <path class="st1" d="M164.9,49.9h5.2v5.2h-5.2v-5.2Z"/>
  <path class="st1" d="M4.9,54.9h5.2v5.2h-5.2s0-5.2,0-5.2Z"/>
  <path class="st1" d="M9.9,54.9h5.2v5.2h-5.2v-5.2Z"/>
  <path class="st1" d="M24.9,54.9h5.2v5.2h-5.2s0-5.2,0-5.2Z"/>
  <path class="st1" d="M29.9,54.9h5.2v5.2h-5.2s0-5.2,0-5.2Z"/>
  <path class="st1" d="M34.9,54.9h5.2v5.2h-5.2v-5.2Z"/>
  <path class="st1" d="M39.9,54.9h5.2v5.2h-5.2v-5.2Z"/>
  <path class="st1" d="M54.9,54.9h5.2v5.2h-5.2v-5.2Z"/>
  <path class="st1" d="M69.9,54.9h5.2v5.2h-5.2v-5.2Z"/>
  <path class="st1" d="M74.9,54.9h5.2v5.2h-5.2v-5.2Z"/>
  <path class="st1" d="M79.9,54.9h5.2v5.2h-5.2v-5.2Z"/>
  <path class="st1" d="M84.9,54.9h5.2v5.2h-5.2v-5.2Z"/>
  <path class="st1" d="M94.9,54.9h5.2v5.2h-5.2v-5.2Z"/>
  <path class="st1" d="M99.9,54.9h5.2v5.2h-5.2v-5.2Z"/>
  <path class="st1" d="M124.9,54.9h5.2v5.2h-5.2s0-5.2,0-5.2Z"/>
  <path class="st1" d="M149.9,54.9h5.2v5.2h-5.2v-5.2Z"/>
  <path class="st1" d="M39.9,59.9h5.2v5.2h-5.2s0-5.2,0-5.2Z"/>
  <path class="st1" d="M44.9,59.9h5.2v5.2h-5.2s0-5.2,0-5.2Z"/>
  <path class="st1" d="M49.9,59.9h5.2v5.2h-5.2s0-5.2,0-5.2Z"/>
  <path class="st1" d="M54.9,59.9h5.2v5.2h-5.2s0-5.2,0-5.2Z"/>
  <path class="st1" d="M59.9,59.9h5.2v5.2h-5.2s0-5.2,0-5.2Z"/>
  <path class="st1" d="M64.9,59.9h5.2v5.2h-5.2s0-5.2,0-5.2Z"/>
  <path class="st1" d="M69.9,59.9h5.2v5.2h-5.2s0-5.2,0-5.2Z"/>
  <path class="st1" d="M79.9,59.9h5.2v5.2h-5.2s0-5.2,0-5.2Z"/>
  <path class="st1" d="M99.9,59.9h5.2v5.2h-5.2s0-5.2,0-5.2Z"/>
  <path class="st1" d="M114.9,59.9h5.2v5.2h-5.2s0-5.2,0-5.2Z"/>
  <path class="st1" d="M119.9,59.9h5.2v5.2h-5.2s0-5.2,0-5.2Z"/>
  <path class="st1" d="M124.9,59.9h5.2v5.2h-5.2s0-5.2,0-5.2Z"/>
  <path class="st1" d="M14.9,64.9h5.2v5.2h-5.2s0-5.2,0-5.2Z"/>
  <path class="st1" d="M19.9,64.9h5.2v5.2h-5.2s0-5.2,0-5.2Z"/>
  <path class="st1" d="M24.9,64.9h5.2v5.2h-5.2s0-5.2,0-5.2Z"/>
  <path class="st1" d="M29.9,64.9h5.2v5.2h-5.2s0-5.2,0-5.2Z"/>
  <path class="st1" d="M34.9,64.9h5.2v5.2h-5.2v-5.2Z"/>
  <path class="st1" d="M39.9,64.9h5.2v5.2h-5.2v-5.2Z"/>
  <path class="st1" d="M54.9,64.9h5.2v5.2h-5.2v-5.2Z"/>
  <path class="st1" d="M64.9,64.9h5.2v5.2h-5.2v-5.2Z"/>
  <path class="st1" d="M69.9,64.9h5.2v5.2h-5.2v-5.2Z"/>
  <path class="st1" d="M84.9,64.9h5.2v5.2h-5.2v-5.2Z"/>
  <path class="st1" d="M99.9,64.9h5.2v5.2h-5.2v-5.2Z"/>
  <path class="st1" d="M114.9,64.9h5.2v5.2h-5.2v-5.2Z"/>
  <path class="st1" d="M119.9,64.9h5.2v5.2h-5.2v-5.2Z"/>
  <path class="st1" d="M129.9,64.9h5.2v5.2h-5.2v-5.2Z"/>
  <path class="st1" d="M134.9,64.9h5.2v5.2h-5.2v-5.2Z"/>
  <path class="st1" d="M149.9,64.9h5.2v5.2h-5.2v-5.2Z"/>
  <path class="st1" d="M159.9,64.9h5.2v5.2h-5.2v-5.2Z"/>
  <path class="st1" d="M9.9,69.9h5.2v5.2h-5.2v-5.2Z"/>
  <path class="st1" d="M24.9,69.9h5.2v5.2h-5.2s0-5.2,0-5.2Z"/>
  <path class="st1" d="M39.9,69.9h5.2v5.2h-5.2v-5.2Z"/>
  <path class="st1" d="M49.9,69.9h5.2v5.2h-5.2v-5.2Z"/>
  <path class="st1" d="M54.9,69.9h5.2v5.2h-5.2v-5.2Z"/>
  <path class="st1" d="M59.9,69.9h5.2v5.2h-5.2s0-5.2,0-5.2Z"/>
  <path class="st1" d="M69.9,69.9h5.2v5.2h-5.2v-5.2Z"/>
  <path class="st1" d="M74.9,69.9h5.2v5.2h-5.2v-5.2Z"/>
  <path class="st1" d="M94.9,69.9h5.2v5.2h-5.2v-5.2Z"/>
  <path class="st1" d="M99.9,69.9h5.2v5.2h-5.2v-5.2Z"/>
  <path class="st1" d="M104.9,69.9h5.2v5.2h-5.2v-5.2Z"/>
  <path class="st1" d="M124.9,69.9h5.2v5.2h-5.2s0-5.2,0-5.2Z"/>
  <path class="st1" d="M129.9,69.9h5.2v5.2h-5.2v-5.2Z"/>
  <path class="st1" d="M134.9,69.9h5.2v5.2h-5.2v-5.2Z"/>
  <path class="st1" d="M139.9,69.9h5.2v5.2h-5.2v-5.2Z"/>
  <path class="st1" d="M144.9,69.9h5.2v5.2h-5.2v-5.2Z"/>
  <path class="st1" d="M149.9,69.9h5.2v5.2h-5.2v-5.2Z"/>
  <path class="st1" d="M154.9,69.9h5.2v5.2h-5.2v-5.2Z"/>
  <path class="st1" d="M9.9,74.9h5.2v5.2h-5.2v-5.2Z"/>
  <path class="st1" d="M14.9,74.9h5.2v5.2h-5.2s0-5.2,0-5.2Z"/>
  <path class="st1" d="M19.9,74.9h5.2v5.2h-5.2s0-5.2,0-5.2Z"/>
  <path class="st1" d="M24.9,74.9h5.2v5.2h-5.2s0-5.2,0-5.2Z"/>
  <path class="st1" d="M29.9,74.9h5.2v5.2h-5.2s0-5.2,0-5.2Z"/>
  <path class="st1" d="M34.9,74.9h5.2v5.2h-5.2v-5.2Z"/>
  <path class="st1" d="M44.9,74.9h5.2v5.2h-5.2v-5.2Z"/>
  <path class="st1" d="M59.9,74.9h5.2v5.2h-5.2s0-5.2,0-5.2Z"/>
  <path class="st1" d="M74.9,74.9h5.2v5.2h-5.2v-5.2Z"/>
  <path class="st1" d="M79.9,74.9h5.2v5.2h-5.2v-5.2Z"/>
  <path class="st1" d="M104.9,74.9h5.2v5.2h-5.2v-5.2Z"/>
  <path class="st1" d="M114.9,74.9h5.2v5.2h-5.2v-5.2Z"/>
  <path class="st1" d="M119.9,74.9h5.2v5.2h-5.2v-5.2Z"/>
  <path class="st1" d="M124.9,74.9h5.2v5.2h-5.2s0-5.2,0-5.2Z"/>
  <path class="st1" d="M129.9,74.9h5.2v5.2h-5.2v-5.2Z"/>
  <path class="st1" d="M139.9,74.9h5.2v5.2h-5.2v-5.2Z"/>
  <path class="st1" d="M149.9,74.9h5.2v5.2h-5.2v-5.2Z"/>
  <path class="st1" d="M159.9,74.9h5.2v5.2h-5.2v-5.2Z"/>
  <path class="st1" d="M4.9,79.9h5.2v5.2h-5.2s0-5.2,0-5.2Z"/>
  <path class="st1" d="M9.9,79.9h5.2v5.2h-5.2v-5.2Z"/>
  <path class="st1" d="M39.9,79.9h5.2v5.2h-5.2v-5.2Z"/>
  <path class="st1" d="M49.9,79.9h5.2v5.2h-5.2v-5.2Z"/>
  <path class="st1" d="M79.9,79.9h5.2v5.2h-5.2v-5.2Z"/>
  <path class="st1" d="M84.9,79.9h5.2v5.2h-5.2v-5.2Z"/>
  <path class="st1" d="M109.9,79.9h5.2v5.2h-5.2v-5.2Z"/>
  <path class="st1" d="M119.9,79.9h5.2v5.2h-5.2v-5.2Z"/>
  <path class="st1" d="M129.9,79.9h5.2v5.2h-5.2v-5.2Z"/>
  <path class="st1" d="M134.9,79.9h5.2v5.2h-5.2v-5.2Z"/>
  <path class="st1" d="M139.9,79.9h5.2v5.2h-5.2v-5.2Z"/>
  <path class="st1" d="M154.9,79.9h5.2v5.2h-5.2v-5.2Z"/>
  <path class="st1" d="M4.9,84.9h5.2v5.2h-5.2s0-5.2,0-5.2Z"/>
  <path class="st1" d="M9.9,84.9h5.2v5.2h-5.2v-5.2Z"/>
  <path class="st1" d="M14.9,84.9h5.2v5.2h-5.2s0-5.2,0-5.2Z"/>
  <path class="st1" d="M34.9,84.9h5.2v5.2h-5.2v-5.2Z"/>
  <path class="st1" d="M44.9,84.9h5.2v5.2h-5.2v-5.2Z"/>
  <path class="st1" d="M54.9,84.9h5.2v5.2h-5.2v-5.2Z"/>
  <path class="st1" d="M64.9,84.9h5.2v5.2h-5.2v-5.2Z"/>
  <path class="st1" d="M94.9,84.9h5.2v5.2h-5.2v-5.2Z"/>
  <path class="st1" d="M99.9,84.9h5.2v5.2h-5.2v-5.2Z"/>
  <path class="st1" d="M114.9,84.9h5.2v5.2h-5.2v-5.2Z"/>
  <path class="st1" d="M129.9,84.9h5.2v5.2h-5.2v-5.2Z"/>
  <path class="st1" d="M139.9,84.9h5.2v5.2h-5.2v-5.2Z"/>
  <path class="st1" d="M154.9,84.9h5.2v5.2h-5.2v-5.2Z"/>
  <path class="st1" d="M159.9,84.9h5.2v5.2h-5.2v-5.2Z"/>
  <path class="st1" d="M4.9,89.9h5.2v5.2h-5.2s0-5.2,0-5.2Z"/>
  <path class="st1" d="M14.9,89.9h5.2v5.2h-5.2s0-5.2,0-5.2Z"/>
  <path class="st1" d="M39.9,89.9h5.2v5.2h-5.2v-5.2Z"/>
  <path class="st1" d="M44.9,89.9h5.2v5.2h-5.2v-5.2Z"/>
  <path class="st1" d="M49.9,89.9h5.2v5.2h-5.2v-5.2Z"/>
  <path class="st1" d="M59.9,89.9h5.2v5.2h-5.2s0-5.2,0-5.2Z"/>
  <path class="st1" d="M74.9,89.9h5.2v5.2h-5.2v-5.2Z"/>
  <path class="st1" d="M79.9,89.9h5.2v5.2h-5.2v-5.2Z"/>
  <path class="st1" d="M84.9,89.9h5.2v5.2h-5.2v-5.2Z"/>
  <path class="st1" d="M104.9,89.9h5.2v5.2h-5.2v-5.2Z"/>
  <path class="st1" d="M114.9,89.9h5.2v5.2h-5.2v-5.2Z"/>
  <path class="st1" d="M129.9,89.9h5.2v5.2h-5.2v-5.2Z"/>
  <path class="st1" d="M149.9,89.9h5.2v5.2h-5.2v-5.2Z"/>
  <path class="st1" d="M154.9,89.9h5.2v5.2h-5.2v-5.2Z"/>
  <path class="st1" d="M159.9,89.9h5.2v5.2h-5.2v-5.2Z"/>
  <path class="st1" d="M164.9,89.9h5.2v5.2h-5.2v-5.2Z"/>
  <path class="st1" d="M4.9,94.9h5.2v5.2h-5.2s0-5.2,0-5.2Z"/>
  <path class="st1" d="M9.9,94.9h5.2v5.2h-5.2v-5.2Z"/>
  <path class="st1" d="M19.9,94.9h5.2v5.2h-5.2s0-5.2,0-5.2Z"/>
  <path class="st1" d="M24.9,94.9h5.2v5.2h-5.2s0-5.2,0-5.2Z"/>
  <path class="st1" d="M34.9,94.9h5.2v5.2h-5.2v-5.2Z"/>
  <path class="st1" d="M44.9,94.9h5.2v5.2h-5.2v-5.2Z"/>
  <path class="st1" d="M49.9,94.9h5.2v5.2h-5.2v-5.2Z"/>
  <path class="st1" d="M59.9,94.9h5.2v5.2h-5.2s0-5.2,0-5.2Z"/>
  <path class="st1" d="M64.9,94.9h5.2v5.2h-5.2v-5.2Z"/>
  <path class="st1" d="M79.9,94.9h5.2v5.2h-5.2v-5.2Z"/>
  <path class="st1" d="M89.9,94.9h5.2v5.2h-5.2v-5.2Z"/>
  <path class="st1" d="M99.9,94.9h5.2v5.2h-5.2v-5.2Z"/>
  <path class="st1" d="M104.9,94.9h5.2v5.2h-5.2v-5.2Z"/>
  <path class="st1" d="M109.9,94.9h5.2v5.2h-5.2v-5.2Z"/>
  <path class="st1" d="M114.9,94.9h5.2v5.2h-5.2v-5.2Z"/>
  <path class="st1" d="M124.9,94.9h5.2v5.2h-5.2s0-5.2,0-5.2Z"/>
  <path class="st1" d="M129.9,94.9h5.2v5.2h-5.2v-5.2Z"/>
  <path class="st1" d="M134.9,94.9h5.2v5.2h-5.2v-5.2Z"/>
  <path class="st1" d="M139.9,94.9h5.2v5.2h-5.2v-5.2Z"/>
  <path class="st1" d="M144.9,94.9h5.2v5.2h-5.2v-5.2Z"/>
  <path class="st1" d="M149.9,94.9h5.2v5.2h-5.2v-5.2Z"/>
  <path class="st1" d="M159.9,94.9h5.2v5.2h-5.2v-5.2Z"/>
  <path class="st1" d="M14.9,99.9h5.2v5.2h-5.2s0-5.2,0-5.2Z"/>
  <path class="st1" d="M39.9,99.9h5.2v5.2h-5.2v-5.2Z"/>
  <path class="st1" d="M59.9,99.9h5.2v5.2h-5.2s0-5.2,0-5.2Z"/>
  <path class="st1" d="M84.9,99.9h5.2v5.2h-5.2v-5.2Z"/>
  <path class="st1" d="M89.9,99.9h5.2v5.2h-5.2v-5.2Z"/>
  <path class="st1" d="M94.9,99.9h5.2v5.2h-5.2v-5.2Z"/>
  <path class="st1" d="M99.9,99.9h5.2v5.2h-5.2v-5.2Z"/>
  <path class="st1" d="M109.9,99.9h5.2v5.2h-5.2v-5.2Z"/>
  <path class="st1" d="M119.9,99.9h5.2v5.2h-5.2v-5.2Z"/>
  <path class="st1" d="M124.9,99.9h5.2v5.2h-5.2s0-5.2,0-5.2Z"/>
  <path class="st1" d="M134.9,99.9h5.2v5.2h-5.2v-5.2Z"/>
  <path class="st1" d="M139.9,99.9h5.2v5.2h-5.2v-5.2Z"/>
  <path class="st1" d="M144.9,99.9h5.2v5.2h-5.2v-5.2Z"/>
  <path class="st1" d="M159.9,99.9h5.2v5.2h-5.2v-5.2Z"/>
  <path class="st1" d="M29.9,104.9h5.2v5.2h-5.2s0-5.2,0-5.2Z"/>
  <path class="st1" d="M34.9,104.9h5.2v5.2h-5.2v-5.2Z"/>
  <path class="st1" d="M44.9,104.9h5.2v5.2h-5.2v-5.2Z"/>
  <path class="st1" d="M49.9,104.9h5.2v5.2h-5.2v-5.2Z"/>
  <path class="st1" d="M54.9,104.9h5.2v5.2h-5.2v-5.2Z"/>
  <path class="st1" d="M59.9,104.9h5.2v5.2h-5.2s0-5.2,0-5.2Z"/>
  <path class="st1" d="M64.9,104.9h5.2v5.2h-5.2v-5.2Z"/>
  <path class="st1" d="M69.9,104.9h5.2v5.2h-5.2v-5.2Z"/>
  <path class="st1" d="M74.9,104.9h5.2v5.2h-5.2v-5.2Z"/>
  <path class="st1" d="M94.9,104.9h5.2v5.2h-5.2v-5.2Z"/>
  <path class="st1" d="M99.9,104.9h5.2v5.2h-5.2v-5.2Z"/>
  <path class="st1" d="M104.9,104.9h5.2v5.2h-5.2v-5.2Z"/>
  <path class="st1" d="M119.9,104.9h5.2v5.2h-5.2v-5.2Z"/>
  <path class="st1" d="M124.9,104.9h5.2v5.2h-5.2s0-5.2,0-5.2Z"/>
  <path class="st1" d="M139.9,104.9h5.2v5.2h-5.2v-5.2Z"/>
  <path class="st1" d="M149.9,104.9h5.2v5.2h-5.2v-5.2Z"/>
  <path class="st1" d="M14.9,109.9h5.2v5.2h-5.2s0-5.2,0-5.2Z"/>
  <path class="st1" d="M19.9,109.9h5.2v5.2h-5.2s0-5.2,0-5.2Z"/>
  <path class="st1" d="M24.9,109.9h5.2v5.2h-5.2s0-5.2,0-5.2Z"/>
  <path class="st1" d="M49.9,109.9h5.2v5.2h-5.2v-5.2Z"/>
  <path class="st1" d="M54.9,109.9h5.2v5.2h-5.2v-5.2Z"/>
  <path class="st1" d="M74.9,109.9h5.2v5.2h-5.2v-5.2Z"/>
  <path class="st1" d="M84.9,109.9h5.2v5.2h-5.2v-5.2Z"/>
  <path class="st1" d="M99.9,109.9h5.2v5.2h-5.2v-5.2Z"/>
  <path class="st1" d="M114.9,109.9h5.2v5.2h-5.2v-5.2Z"/>
  <path class="st1" d="M129.9,109.9h5.2v5.2h-5.2v-5.2Z"/>
  <path class="st1" d="M134.9,109.9h5.2v5.2h-5.2v-5.2Z"/>
  <path class="st1" d="M149.9,109.9h5.2v5.2h-5.2v-5.2Z"/>
  <path class="st1" d="M159.9,109.9h5.2v5.2h-5.2v-5.2Z"/>
  <path class="st1" d="M4.9,114.9h5.2v5.2h-5.2s0-5.2,0-5.2Z"/>
  <path class="st1" d="M9.9,114.9h5.2v5.2h-5.2v-5.2Z"/>
  <path class="st1" d="M19.9,114.9h5.2v5.2h-5.2s0-5.2,0-5.2Z"/>
  <path class="st1" d="M24.9,114.9h5.2v5.2h-5.2s0-5.2,0-5.2Z"/>
  <path class="st1" d="M34.9,114.9h5.2v5.2h-5.2v-5.2Z"/>
  <path class="st1" d="M39.9,114.9h5.2v5.2h-5.2v-5.2Z"/>
  <path class="st1" d="M69.9,114.9h5.2v5.2h-5.2v-5.2Z"/>
  <path class="st1" d="M84.9,114.9h5.2v5.2h-5.2v-5.2Z"/>
  <path class="st1" d="M89.9,114.9h5.2v5.2h-5.2v-5.2Z"/>
  <path class="st1" d="M99.9,114.9h5.2v5.2h-5.2v-5.2Z"/>
  <path class="st1" d="M114.9,114.9h5.2v5.2h-5.2v-5.2Z"/>
  <path class="st1" d="M129.9,114.9h5.2v5.2h-5.2v-5.2Z"/>
  <path class="st1" d="M134.9,114.9h5.2v5.2h-5.2v-5.2Z"/>
  <path class="st1" d="M139.9,114.9h5.2v5.2h-5.2v-5.2Z"/>
  <path class="st1" d="M144.9,114.9h5.2v5.2h-5.2v-5.2Z"/>
  <path class="st1" d="M149.9,114.9h5.2v5.2h-5.2v-5.2Z"/>
  <path class="st1" d="M159.9,114.9h5.2v5.2h-5.2v-5.2Z"/>
  <path class="st1" d="M4.9,119.9h5.2v5.2h-5.2s0-5.2,0-5.2Z"/>
  <path class="st1" d="M9.9,119.9h5.2v5.2h-5.2v-5.2Z"/>
  <path class="st1" d="M14.9,119.9h5.2v5.2h-5.2s0-5.2,0-5.2Z"/>
  <path class="st1" d="M19.9,119.9h5.2v5.2h-5.2s0-5.2,0-5.2Z"/>
  <path class="st1" d="M29.9,119.9h5.2v5.2h-5.2s0-5.2,0-5.2Z"/>
  <path class="st1" d="M44.9,119.9h5.2v5.2h-5.2v-5.2Z"/>
  <path class="st1" d="M49.9,119.9h5.2v5.2h-5.2v-5.2Z"/>
  <path class="st1" d="M54.9,119.9h5.2v5.2h-5.2v-5.2Z"/>
  <path class="st1" d="M59.9,119.9h5.2v5.2h-5.2s0-5.2,0-5.2Z"/>
  <path class="st1" d="M64.9,119.9h5.2v5.2h-5.2v-5.2Z"/>
  <path class="st1" d="M74.9,119.9h5.2v5.2h-5.2v-5.2Z"/>
  <path class="st1" d="M89.9,119.9h5.2v5.2h-5.2v-5.2Z"/>
  <path class="st1" d="M99.9,119.9h5.2v5.2h-5.2v-5.2Z"/>
  <path class="st1" d="M104.9,119.9h5.2v5.2h-5.2v-5.2Z"/>
  <path class="st1" d="M109.9,119.9h5.2v5.2h-5.2v-5.2Z"/>
  <path class="st1" d="M114.9,119.9h5.2v5.2h-5.2v-5.2Z"/>
  <path class="st1" d="M124.9,119.9h5.2v5.2h-5.2s0-5.2,0-5.2Z"/>
  <path class="st1" d="M129.9,119.9h5.2v5.2h-5.2v-5.2Z"/>
  <path class="st1" d="M139.9,119.9h5.2v5.2h-5.2v-5.2Z"/>
  <path class="st1" d="M144.9,119.9h5.2v5.2h-5.2v-5.2Z"/>
  <path class="st1" d="M154.9,119.9h5.2v5.2h-5.2v-5.2Z"/>
  <path class="st1" d="M159.9,119.9h5.2v5.2h-5.2v-5.2Z"/>
  <path class="st1" d="M19.9,124.9h5.2v5.2h-5.2s0-5.2,0-5.2Z"/>
  <path class="st1" d="M29.9,124.9h5.2v5.2h-5.2s0-5.2,0-5.2Z"/>
  <path class="st1" d="M34.9,124.9h5.2v5.2h-5.2v-5.2Z"/>
  <path class="st1" d="M54.9,124.9h5.2v5.2h-5.2v-5.2Z"/>
  <path class="st1" d="M59.9,124.9h5.2v5.2h-5.2s0-5.2,0-5.2Z"/>
  <path class="st1" d="M64.9,124.9h5.2v5.2h-5.2v-5.2Z"/>
  <path class="st1" d="M79.9,124.9h5.2v5.2h-5.2v-5.2Z"/>
  <path class="st1" d="M94.9,124.9h5.2v5.2h-5.2v-5.2Z"/>
  <path class="st1" d="M119.9,124.9h5.2v5.2h-5.2v-5.2Z"/>
  <path class="st1" d="M124.9,124.9h5.2v5.2h-5.2s0-5.2,0-5.2Z"/>
  <path class="st1" d="M129.9,124.9h5.2v5.2h-5.2v-5.2Z"/>
  <path class="st1" d="M134.9,124.9h5.2v5.2h-5.2v-5.2Z"/>
  <path class="st1" d="M139.9,124.9h5.2v5.2h-5.2v-5.2Z"/>
  <path class="st1" d="M144.9,124.9h5.2v5.2h-5.2v-5.2Z"/>
  <path class="st1" d="M164.9,124.9h5.2v5.2h-5.2v-5.2Z"/>
  <path class="st1" d="M44.9,129.9h5.2v5.2h-5.2v-5.2Z"/>
  <path class="st1" d="M89.9,129.9h5.2v5.2h-5.2v-5.2Z"/>
  <path class="st1" d="M94.9,129.9h5.2v5.2h-5.2v-5.2Z"/>
  <path class="st1" d="M104.9,129.9h5.2v5.2h-5.2v-5.2Z"/>
  <path class="st1" d="M109.9,129.9h5.2v5.2h-5.2v-5.2Z"/>
  <path class="st1" d="M119.9,129.9h5.2v5.2h-5.2v-5.2Z"/>
  <path class="st1" d="M124.9,129.9h5.2v5.2h-5.2s0-5.2,0-5.2Z"/>
  <path class="st1" d="M144.9,129.9h5.2v5.2h-5.2v-5.2Z"/>
  <path class="st1" d="M154.9,129.9h5.2v5.2h-5.2v-5.2Z"/>
  <path class="st1" d="M159.9,129.9h5.2v5.2h-5.2v-5.2Z"/>
  <path class="st1" d="M164.9,129.9h5.2v5.2h-5.2v-5.2Z"/>
  <path class="st1" d="M4.9,134.9h5.2v5.2h-5.2s0-5.2,0-5.2Z"/>
  <path class="st1" d="M9.9,134.9h5.2v5.2h-5.2v-5.2Z"/>
  <path class="st1" d="M14.9,134.9h5.2v5.2h-5.2s0-5.2,0-5.2Z"/>
  <path class="st1" d="M19.9,134.9h5.2v5.2h-5.2s0-5.2,0-5.2Z"/>
  <path class="st1" d="M24.9,134.9h5.2v5.2h-5.2s0-5.2,0-5.2Z"/>
  <path class="st1" d="M29.9,134.9h5.2v5.2h-5.2s0-5.2,0-5.2Z"/>
  <path class="st1" d="M34.9,134.9h5.2v5.2h-5.2v-5.2Z"/>
  <path class="st1" d="M44.9,134.9h5.2v5.2h-5.2v-5.2Z"/>
  <path class="st1" d="M54.9,134.9h5.2v5.2h-5.2v-5.2Z"/>
  <path class="st1" d="M64.9,134.9h5.2v5.2h-5.2v-5.2Z"/>
  <path class="st1" d="M79.9,134.9h5.2v5.2h-5.2v-5.2Z"/>
  <path class="st1" d="M84.9,134.9h5.2v5.2h-5.2v-5.2Z"/>
  <path class="st1" d="M94.9,134.9h5.2v5.2h-5.2v-5.2Z"/>
  <path class="st1" d="M99.9,134.9h5.2v5.2h-5.2v-5.2Z"/>
  <path class="st1" d="M119.9,134.9h5.2v5.2h-5.2v-5.2Z"/>
  <path class="st1" d="M124.9,134.9h5.2v5.2h-5.2s0-5.2,0-5.2Z"/>
  <path class="st1" d="M134.9,134.9h5.2v5.2h-5.2v-5.2Z"/>
  <path class="st1" d="M144.9,134.9h5.2v5.2h-5.2v-5.2Z"/>
  <path class="st1" d="M149.9,134.9h5.2v5.2h-5.2v-5.2Z"/>
  <path class="st1" d="M4.9,139.9h5.2v5.2h-5.2s0-5.2,0-5.2Z"/>
  <path class="st1" d="M34.9,139.9h5.2v5.2h-5.2v-5.2Z"/>
  <path class="st1" d="M69.9,139.9h5.2v5.2h-5.2v-5.2Z"/>
  <path class="st1" d="M74.9,139.9h5.2v5.2h-5.2v-5.2Z"/>
  <path class="st1" d="M79.9,139.9h5.2v5.2h-5.2v-5.2Z"/>
  <path class="st1" d="M114.9,139.9h5.2v5.2h-5.2v-5.2Z"/>
  <path class="st1" d="M124.9,139.9h5.2v5.2h-5.2s0-5.2,0-5.2Z"/>
  <path class="st1" d="M144.9,139.9h5.2v5.2h-5.2v-5.2Z"/>
  <path class="st1" d="M4.9,144.9h5.2v5.2h-5.2s0-5.2,0-5.2Z"/>
  <path class="st1" d="M14.9,144.9h5.2v5.2h-5.2s0-5.2,0-5.2Z"/>
  <path class="st1" d="M19.9,144.9h5.2v5.2h-5.2s0-5.2,0-5.2Z"/>
  <path class="st1" d="M24.9,144.9h5.2v5.2h-5.2s0-5.2,0-5.2Z"/>
  <path class="st1" d="M34.9,144.9h5.2v5.2h-5.2v-5.2Z"/>
  <path class="st1" d="M44.9,144.9h5.2v5.2h-5.2v-5.2Z"/>
  <path class="st1" d="M49.9,144.9h5.2v5.2h-5.2v-5.2Z"/>
  <path class="st1" d="M59.9,144.9h5.2v5.2h-5.2s0-5.2,0-5.2Z"/>
  <path class="st1" d="M69.9,144.9h5.2v5.2h-5.2v-5.2Z"/>
  <path class="st1" d="M84.9,144.9h5.2v5.2h-5.2v-5.2Z"/>
  <path class="st1" d="M99.9,144.9h5.2v5.2h-5.2v-5.2Z"/>
  <path class="st1" d="M114.9,144.9h5.2v5.2h-5.2v-5.2Z"/>
  <path class="st1" d="M119.9,144.9h5.2v5.2h-5.2v-5.2Z"/>
  <path class="st1" d="M124.9,144.9h5.2v5.2h-5.2s0-5.2,0-5.2Z"/>
  <path class="st1" d="M129.9,144.9h5.2v5.2h-5.2v-5.2Z"/>
  <path class="st1" d="M134.9,144.9h5.2v5.2h-5.2v-5.2Z"/>
  <path class="st1" d="M139.9,144.9h5.2v5.2h-5.2v-5.2Z"/>
  <path class="st1" d="M144.9,144.9h5.2v5.2h-5.2v-5.2Z"/>
  <path class="st1" d="M149.9,144.9h5.2v5.2h-5.2v-5.2Z"/>
  <path class="st1" d="M159.9,144.9h5.2v5.2h-5.2v-5.2Z"/>
  <path class="st1" d="M164.9,144.9h5.2v5.2h-5.2v-5.2Z"/>
  <path class="st1" d="M4.9,149.9h5.2v5.2h-5.2s0-5.2,0-5.2Z"/>
  <path class="st1" d="M14.9,149.9h5.2v5.2h-5.2s0-5.2,0-5.2Z"/>
  <path class="st1" d="M19.9,149.9h5.2v5.2h-5.2s0-5.2,0-5.2Z"/>
  <path class="st1" d="M24.9,149.9h5.2v5.2h-5.2s0-5.2,0-5.2Z"/>
  <path class="st1" d="M34.9,149.9h5.2v5.2h-5.2v-5.2Z"/>
  <path class="st1" d="M49.9,149.9h5.2v5.2h-5.2v-5.2Z"/>
  <path class="st1" d="M54.9,149.9h5.2v5.2h-5.2v-5.2Z"/>
  <path class="st1" d="M64.9,149.9h5.2v5.2h-5.2v-5.2Z"/>
  <path class="st1" d="M94.9,149.9h5.2v5.2h-5.2v-5.2Z"/>
  <path class="st1" d="M99.9,149.9h5.2v5.2h-5.2v-5.2Z"/>
  <path class="st1" d="M104.9,149.9h5.2v5.2h-5.2v-5.2Z"/>
  <path class="st1" d="M124.9,149.9h5.2v5.2h-5.2s0-5.2,0-5.2Z"/>
  <path class="st1" d="M129.9,149.9h5.2v5.2h-5.2v-5.2Z"/>
  <path class="st1" d="M134.9,149.9h5.2v5.2h-5.2v-5.2Z"/>
  <path class="st1" d="M144.9,149.9h5.2v5.2h-5.2v-5.2Z"/>
  <path class="st1" d="M149.9,149.9h5.2v5.2h-5.2v-5.2Z"/>
  <path class="st1" d="M154.9,149.9h5.2v5.2h-5.2v-5.2Z"/>
  <path class="st1" d="M159.9,149.9h5.2v5.2h-5.2v-5.2Z"/>
  <path class="st1" d="M164.9,149.9h5.2v5.2h-5.2v-5.2Z"/>
  <path class="st1" d="M4.9,154.9h5.2v5.2h-5.2s0-5.2,0-5.2Z"/>
  <path class="st1" d="M14.9,154.9h5.2v5.2h-5.2s0-5.2,0-5.2Z"/>
  <path class="st1" d="M19.9,154.9h5.2v5.2h-5.2s0-5.2,0-5.2Z"/>
  <path class="st1" d="M24.9,154.9h5.2v5.2h-5.2s0-5.2,0-5.2Z"/>
  <path class="st1" d="M34.9,154.9h5.2v5.2h-5.2v-5.2Z"/>
  <path class="st1" d="M49.9,154.9h5.2v5.2h-5.2v-5.2Z"/>
  <path class="st1" d="M54.9,154.9h5.2v5.2h-5.2v-5.2Z"/>
  <path class="st1" d="M64.9,154.9h5.2v5.2h-5.2v-5.2Z"/>
  <path class="st1" d="M79.9,154.9h5.2v5.2h-5.2v-5.2Z"/>
  <path class="st1" d="M94.9,154.9h5.2v5.2h-5.2v-5.2Z"/>
  <path class="st1" d="M104.9,154.9h5.2v5.2h-5.2v-5.2Z"/>
  <path class="st1" d="M114.9,154.9h5.2v5.2h-5.2v-5.2Z"/>
  <path class="st1" d="M119.9,154.9h5.2v5.2h-5.2v-5.2Z"/>
  <path class="st1" d="M139.9,154.9h5.2v5.2h-5.2v-5.2Z"/>
  <path class="st1" d="M144.9,154.9h5.2v5.2h-5.2v-5.2Z"/>
  <path class="st1" d="M149.9,154.9h5.2v5.2h-5.2v-5.2Z"/>
  <path class="st1" d="M4.9,159.9h5.2v5.2h-5.2s0-5.2,0-5.2Z"/>
  <path class="st1" d="M34.9,159.9h5.2v5.2h-5.2v-5.2Z"/>
  <path class="st1" d="M49.9,159.9h5.2v5.2h-5.2v-5.2Z"/>
  <path class="st1" d="M54.9,159.9h5.2v5.2h-5.2v-5.2Z"/>
  <path class="st1" d="M74.9,159.9h5.2v5.2h-5.2v-5.2Z"/>
  <path class="st1" d="M79.9,159.9h5.2v5.2h-5.2v-5.2Z"/>
  <path class="st1" d="M84.9,159.9h5.2v5.2h-5.2v-5.2Z"/>
  <path class="st1" d="M109.9,159.9h5.2v5.2h-5.2v-5.2Z"/>
  <path class="st1" d="M4.9,164.9h5.2v5.2h-5.2s0-5.2,0-5.2Z"/>
  <path class="st1" d="M9.9,164.9h5.2v5.2h-5.2v-5.2Z"/>
  <path class="st1" d="M14.9,164.9h5.2v5.2h-5.2s0-5.2,0-5.2Z"/>
  <path class="st1" d="M19.9,164.9h5.2v5.2h-5.2s0-5.2,0-5.2Z"/>
  <path class="st1" d="M24.9,164.9h5.2v5.2h-5.2s0-5.2,0-5.2Z"/>
  <path class="st1" d="M29.9,164.9h5.2v5.2h-5.2s0-5.2,0-5.2Z"/>
  <path class="st1" d="M34.9,164.9h5.2v5.2h-5.2v-5.2Z"/>
  <path class="st1" d="M44.9,164.9h5.2v5.2h-5.2v-5.2Z"/>
  <path class="st1" d="M64.9,164.9h5.2v5.2h-5.2v-5.2Z"/>
  <path class="st1" d="M84.9,164.9h5.2v5.2h-5.2v-5.2Z"/>
  <path class="st1" d="M94.9,164.9h5.2v5.2h-5.2v-5.2Z"/>
  <path class="st1" d="M99.9,164.9h5.2v5.2h-5.2v-5.2Z"/>
  <path class="st1" d="M109.9,164.9h5.2v5.2h-5.2v-5.2Z"/>
  <path class="st1" d="M124.9,164.9h5.2v5.2h-5.2s0-5.2,0-5.2Z"/>
  <path class="st1" d="M134.9,164.9h5.2v5.2h-5.2v-5.2Z"/>
  <path class="st1" d="M154.9,164.9h5.2v5.2h-5.2v-5.2Z"/>
  <path class="st1" d="M164.9,164.9h5.2v5.2h-5.2v-5.2Z"/>
</svg>